<mxfile host="app.diagrams.net" agent="Mozilla/5.0 (Windows NT 10.0; Win64; x64) AppleWebKit/537.36 (KHTML, like Gecko) Chrome/139.0.0.0 Safari/537.36 Edg/139.0.0.0" version="28.1.1">
  <diagram id="yPxyJZ8AM_hMuL3Unpa9" name="gitflow">
    <mxGraphModel dx="4164" dy="1572" grid="1" gridSize="10" guides="1" tooltips="1" connect="1" arrows="1" fold="1" page="1" pageScale="1" pageWidth="850" pageHeight="1100" math="0" shadow="0">
      <root>
        <mxCell id="0" />
        <mxCell id="1" parent="0" />
        <mxCell id="RqwDbQr5tK9U3BTIjn7D-177" value="Trường&amp;nbsp;" style="rounded=0;whiteSpace=wrap;html=1;" vertex="1" parent="1">
          <mxGeometry x="70" y="155" width="120" height="60" as="geometry" />
        </mxCell>
        <mxCell id="RqwDbQr5tK9U3BTIjn7D-178" value="Khoa" style="whiteSpace=wrap;html=1;" vertex="1" parent="1">
          <mxGeometry x="610" y="155" width="120" height="60" as="geometry" />
        </mxCell>
        <mxCell id="RqwDbQr5tK9U3BTIjn7D-179" value="&lt;u&gt;Tên trường&lt;/u&gt;" style="ellipse;whiteSpace=wrap;html=1;" vertex="1" parent="1">
          <mxGeometry x="-20" y="60" width="120" height="80" as="geometry" />
        </mxCell>
        <mxCell id="RqwDbQr5tK9U3BTIjn7D-180" value="Hiệu trưởng" style="ellipse;whiteSpace=wrap;html=1;" vertex="1" parent="1">
          <mxGeometry x="150" y="60" width="120" height="80" as="geometry" />
        </mxCell>
        <mxCell id="RqwDbQr5tK9U3BTIjn7D-183" value="" style="endArrow=none;html=1;rounded=0;exitX=1;exitY=0;exitDx=0;exitDy=0;entryX=0.5;entryY=1;entryDx=0;entryDy=0;" edge="1" parent="1" source="RqwDbQr5tK9U3BTIjn7D-177" target="RqwDbQr5tK9U3BTIjn7D-180">
          <mxGeometry width="50" height="50" relative="1" as="geometry">
            <mxPoint x="190" y="160" as="sourcePoint" />
            <mxPoint x="210" y="140" as="targetPoint" />
          </mxGeometry>
        </mxCell>
        <mxCell id="RqwDbQr5tK9U3BTIjn7D-184" value="" style="endArrow=none;html=1;rounded=0;entryX=0.683;entryY=0.958;entryDx=0;entryDy=0;entryPerimeter=0;exitX=0;exitY=0;exitDx=0;exitDy=0;" edge="1" parent="1" source="RqwDbQr5tK9U3BTIjn7D-177" target="RqwDbQr5tK9U3BTIjn7D-179">
          <mxGeometry width="50" height="50" relative="1" as="geometry">
            <mxPoint x="70" y="170" as="sourcePoint" />
            <mxPoint x="120" y="120" as="targetPoint" />
          </mxGeometry>
        </mxCell>
        <mxCell id="RqwDbQr5tK9U3BTIjn7D-186" value="&lt;u&gt;Mã Khoa&lt;/u&gt;" style="ellipse;whiteSpace=wrap;html=1;" vertex="1" parent="1">
          <mxGeometry x="660" width="120" height="80" as="geometry" />
        </mxCell>
        <mxCell id="RqwDbQr5tK9U3BTIjn7D-187" value="Tên khoa" style="ellipse;whiteSpace=wrap;html=1;" vertex="1" parent="1">
          <mxGeometry x="805" y="10" width="120" height="80" as="geometry" />
        </mxCell>
        <mxCell id="RqwDbQr5tK9U3BTIjn7D-188" value="Địa chỉ" style="ellipse;whiteSpace=wrap;html=1;" vertex="1" parent="1">
          <mxGeometry x="425" y="60" width="120" height="80" as="geometry" />
        </mxCell>
        <mxCell id="RqwDbQr5tK9U3BTIjn7D-189" value="Số điện thoại" style="ellipse;whiteSpace=wrap;html=1;" vertex="1" parent="1">
          <mxGeometry x="525" width="120" height="80" as="geometry" />
        </mxCell>
        <mxCell id="RqwDbQr5tK9U3BTIjn7D-192" value="" style="endArrow=none;html=1;rounded=0;entryX=0.5;entryY=1;entryDx=0;entryDy=0;exitX=0;exitY=0;exitDx=0;exitDy=0;" edge="1" parent="1" source="RqwDbQr5tK9U3BTIjn7D-178" target="RqwDbQr5tK9U3BTIjn7D-188">
          <mxGeometry width="50" height="50" relative="1" as="geometry">
            <mxPoint x="440" y="160" as="sourcePoint" />
            <mxPoint x="490" y="110" as="targetPoint" />
          </mxGeometry>
        </mxCell>
        <mxCell id="RqwDbQr5tK9U3BTIjn7D-193" value="" style="endArrow=none;html=1;rounded=0;entryX=0.566;entryY=0.99;entryDx=0;entryDy=0;entryPerimeter=0;exitX=1;exitY=0;exitDx=0;exitDy=0;" edge="1" parent="1" source="RqwDbQr5tK9U3BTIjn7D-178" target="RqwDbQr5tK9U3BTIjn7D-186">
          <mxGeometry width="50" height="50" relative="1" as="geometry">
            <mxPoint x="729.9966666666666" y="160" as="sourcePoint" />
            <mxPoint x="803.33" y="100" as="targetPoint" />
          </mxGeometry>
        </mxCell>
        <mxCell id="RqwDbQr5tK9U3BTIjn7D-195" value="" style="endArrow=none;html=1;rounded=0;entryX=0.006;entryY=0.398;entryDx=0;entryDy=0;entryPerimeter=0;exitX=1;exitY=0.25;exitDx=0;exitDy=0;" edge="1" parent="1" source="RqwDbQr5tK9U3BTIjn7D-178" target="RqwDbQr5tK9U3BTIjn7D-187">
          <mxGeometry width="50" height="50" relative="1" as="geometry">
            <mxPoint x="570" y="215" as="sourcePoint" />
            <mxPoint x="620" y="165" as="targetPoint" />
          </mxGeometry>
        </mxCell>
        <mxCell id="RqwDbQr5tK9U3BTIjn7D-198" value="Có&amp;nbsp;" style="html=1;whiteSpace=wrap;aspect=fixed;shape=isoRectangle;" vertex="1" parent="1">
          <mxGeometry x="300" y="140" width="150" height="90" as="geometry" />
        </mxCell>
        <mxCell id="RqwDbQr5tK9U3BTIjn7D-199" value="" style="endArrow=none;html=1;rounded=0;exitX=1;exitY=0.5;exitDx=0;exitDy=0;entryX=-0.003;entryY=0.513;entryDx=0;entryDy=0;entryPerimeter=0;" edge="1" parent="1" source="RqwDbQr5tK9U3BTIjn7D-177" target="RqwDbQr5tK9U3BTIjn7D-198">
          <mxGeometry width="50" height="50" relative="1" as="geometry">
            <mxPoint x="200" y="240" as="sourcePoint" />
            <mxPoint x="250" y="190" as="targetPoint" />
          </mxGeometry>
        </mxCell>
        <mxCell id="RqwDbQr5tK9U3BTIjn7D-200" value="" style="endArrow=none;html=1;rounded=0;entryX=0;entryY=0.5;entryDx=0;entryDy=0;exitX=1.002;exitY=0.495;exitDx=0;exitDy=0;exitPerimeter=0;" edge="1" parent="1" source="RqwDbQr5tK9U3BTIjn7D-198" target="RqwDbQr5tK9U3BTIjn7D-178">
          <mxGeometry width="50" height="50" relative="1" as="geometry">
            <mxPoint x="400" y="190" as="sourcePoint" />
            <mxPoint x="445" y="180" as="targetPoint" />
          </mxGeometry>
        </mxCell>
        <mxCell id="RqwDbQr5tK9U3BTIjn7D-201" value="môn học" style="whiteSpace=wrap;html=1;" vertex="1" parent="1">
          <mxGeometry x="1295" y="155" width="120" height="60" as="geometry" />
        </mxCell>
        <mxCell id="RqwDbQr5tK9U3BTIjn7D-202" value="" style="endArrow=none;html=1;rounded=0;entryX=0.401;entryY=0;entryDx=0;entryDy=0;entryPerimeter=0;exitX=0.5;exitY=1;exitDx=0;exitDy=0;" edge="1" parent="1" source="RqwDbQr5tK9U3BTIjn7D-189" target="RqwDbQr5tK9U3BTIjn7D-178">
          <mxGeometry width="50" height="50" relative="1" as="geometry">
            <mxPoint x="640" y="90" as="sourcePoint" />
            <mxPoint x="580" y="210" as="targetPoint" />
          </mxGeometry>
        </mxCell>
        <mxCell id="RqwDbQr5tK9U3BTIjn7D-203" value="Tên môn học" style="ellipse;whiteSpace=wrap;html=1;" vertex="1" parent="1">
          <mxGeometry x="1130" y="30" width="120" height="80" as="geometry" />
        </mxCell>
        <mxCell id="RqwDbQr5tK9U3BTIjn7D-204" value="&lt;u&gt;Mã số&lt;/u&gt;" style="ellipse;whiteSpace=wrap;html=1;" vertex="1" parent="1">
          <mxGeometry x="1530" y="110" width="120" height="80" as="geometry" />
        </mxCell>
        <mxCell id="RqwDbQr5tK9U3BTIjn7D-205" value="" style="endArrow=none;html=1;rounded=0;entryX=0.819;entryY=0.883;entryDx=0;entryDy=0;entryPerimeter=0;exitX=0;exitY=0;exitDx=0;exitDy=0;" edge="1" parent="1" source="RqwDbQr5tK9U3BTIjn7D-201" target="RqwDbQr5tK9U3BTIjn7D-203">
          <mxGeometry width="50" height="50" relative="1" as="geometry">
            <mxPoint x="70" y="320" as="sourcePoint" />
            <mxPoint x="120" y="270" as="targetPoint" />
          </mxGeometry>
        </mxCell>
        <mxCell id="RqwDbQr5tK9U3BTIjn7D-206" value="" style="endArrow=none;html=1;rounded=0;exitX=0.083;exitY=0.625;exitDx=0;exitDy=0;exitPerimeter=0;entryX=1;entryY=0.75;entryDx=0;entryDy=0;" edge="1" parent="1" source="RqwDbQr5tK9U3BTIjn7D-204" target="RqwDbQr5tK9U3BTIjn7D-201">
          <mxGeometry width="50" height="50" relative="1" as="geometry">
            <mxPoint x="1727.4264068711927" y="99.99572875253742" as="sourcePoint" />
            <mxPoint x="1410" y="190" as="targetPoint" />
          </mxGeometry>
        </mxCell>
        <mxCell id="RqwDbQr5tK9U3BTIjn7D-207" value="Số đơn vị học trình" style="ellipse;whiteSpace=wrap;html=1;" vertex="1" parent="1">
          <mxGeometry x="1400" y="270" width="120" height="80" as="geometry" />
        </mxCell>
        <mxCell id="RqwDbQr5tK9U3BTIjn7D-208" value="" style="endArrow=none;html=1;rounded=0;exitX=0.5;exitY=0;exitDx=0;exitDy=0;entryX=1;entryY=1;entryDx=0;entryDy=0;" edge="1" parent="1" source="RqwDbQr5tK9U3BTIjn7D-207" target="RqwDbQr5tK9U3BTIjn7D-201">
          <mxGeometry width="50" height="50" relative="1" as="geometry">
            <mxPoint x="105" y="470" as="sourcePoint" />
            <mxPoint x="155" y="420" as="targetPoint" />
          </mxGeometry>
        </mxCell>
        <mxCell id="RqwDbQr5tK9U3BTIjn7D-209" value="Trình độ" style="ellipse;whiteSpace=wrap;html=1;" vertex="1" parent="1">
          <mxGeometry x="1420" y="30" width="120" height="80" as="geometry" />
        </mxCell>
        <mxCell id="RqwDbQr5tK9U3BTIjn7D-210" value="" style="endArrow=none;html=1;rounded=0;entryX=1;entryY=0;entryDx=0;entryDy=0;exitX=0.333;exitY=1;exitDx=0;exitDy=0;exitPerimeter=0;" edge="1" parent="1" source="RqwDbQr5tK9U3BTIjn7D-209" target="RqwDbQr5tK9U3BTIjn7D-201">
          <mxGeometry width="50" height="50" relative="1" as="geometry">
            <mxPoint x="1208.7732735266472" y="59.293542656734076" as="sourcePoint" />
            <mxPoint x="1180" y="160" as="targetPoint" />
          </mxGeometry>
        </mxCell>
        <mxCell id="RqwDbQr5tK9U3BTIjn7D-212" value="Có" style="html=1;whiteSpace=wrap;aspect=fixed;shape=isoRectangle;" vertex="1" parent="1">
          <mxGeometry x="970" y="140" width="150" height="90" as="geometry" />
        </mxCell>
        <mxCell id="RqwDbQr5tK9U3BTIjn7D-214" value="" style="endArrow=none;html=1;rounded=0;exitX=1;exitY=0.5;exitDx=0;exitDy=0;entryX=0.004;entryY=0.521;entryDx=0;entryDy=0;entryPerimeter=0;" edge="1" parent="1" source="RqwDbQr5tK9U3BTIjn7D-178" target="RqwDbQr5tK9U3BTIjn7D-212">
          <mxGeometry width="50" height="50" relative="1" as="geometry">
            <mxPoint x="780" y="220" as="sourcePoint" />
            <mxPoint x="830" y="170" as="targetPoint" />
          </mxGeometry>
        </mxCell>
        <mxCell id="RqwDbQr5tK9U3BTIjn7D-215" value="" style="endArrow=none;html=1;rounded=0;entryX=-0.021;entryY=0.428;entryDx=0;entryDy=0;entryPerimeter=0;exitX=0.971;exitY=0.481;exitDx=0;exitDy=0;exitPerimeter=0;" edge="1" parent="1" source="RqwDbQr5tK9U3BTIjn7D-212" target="RqwDbQr5tK9U3BTIjn7D-201">
          <mxGeometry width="50" height="50" relative="1" as="geometry">
            <mxPoint x="980" y="220" as="sourcePoint" />
            <mxPoint x="1030" y="170" as="targetPoint" />
          </mxGeometry>
        </mxCell>
        <mxCell id="RqwDbQr5tK9U3BTIjn7D-227" value="Học phần" style="whiteSpace=wrap;html=1;" vertex="1" parent="1">
          <mxGeometry x="1295" y="565" width="120" height="60" as="geometry" />
        </mxCell>
        <mxCell id="RqwDbQr5tK9U3BTIjn7D-228" value="&lt;u&gt;Mã học phần&lt;span style=&quot;white-space: pre;&quot;&gt;&#x9;&lt;/span&gt;&lt;/u&gt;" style="ellipse;whiteSpace=wrap;html=1;" vertex="1" parent="1">
          <mxGeometry x="1450" y="545" width="120" height="80" as="geometry" />
        </mxCell>
        <mxCell id="RqwDbQr5tK9U3BTIjn7D-229" value="Học kỳ" style="ellipse;whiteSpace=wrap;html=1;" vertex="1" parent="1">
          <mxGeometry x="1440" y="440" width="120" height="80" as="geometry" />
        </mxCell>
        <mxCell id="RqwDbQr5tK9U3BTIjn7D-230" value="" style="endArrow=none;html=1;rounded=0;entryX=0.075;entryY=0.228;entryDx=0;entryDy=0;entryPerimeter=0;exitX=0.929;exitY=0.929;exitDx=0;exitDy=0;exitPerimeter=0;" edge="1" parent="1" source="RqwDbQr5tK9U3BTIjn7D-227" target="RqwDbQr5tK9U3BTIjn7D-228">
          <mxGeometry width="50" height="50" relative="1" as="geometry">
            <mxPoint x="600" y="330" as="sourcePoint" />
            <mxPoint x="650" y="280" as="targetPoint" />
          </mxGeometry>
        </mxCell>
        <mxCell id="RqwDbQr5tK9U3BTIjn7D-231" value="" style="endArrow=none;html=1;rounded=0;entryX=0.94;entryY=-0.008;entryDx=0;entryDy=0;entryPerimeter=0;" edge="1" parent="1" source="RqwDbQr5tK9U3BTIjn7D-229" target="RqwDbQr5tK9U3BTIjn7D-227">
          <mxGeometry width="50" height="50" relative="1" as="geometry">
            <mxPoint x="1572.9064068711928" y="295.7157287525382" as="sourcePoint" />
            <mxPoint x="1600" y="229.9999999999999" as="targetPoint" />
          </mxGeometry>
        </mxCell>
        <mxCell id="RqwDbQr5tK9U3BTIjn7D-236" value="Có" style="html=1;whiteSpace=wrap;aspect=fixed;shape=isoRectangle;" vertex="1" parent="1">
          <mxGeometry x="1280" y="410" width="150" height="90" as="geometry" />
        </mxCell>
        <mxCell id="RqwDbQr5tK9U3BTIjn7D-237" value="" style="endArrow=none;html=1;rounded=0;exitX=0.485;exitY=0.962;exitDx=0;exitDy=0;exitPerimeter=0;entryX=0.5;entryY=0;entryDx=0;entryDy=0;" edge="1" parent="1" source="RqwDbQr5tK9U3BTIjn7D-236" target="RqwDbQr5tK9U3BTIjn7D-227">
          <mxGeometry width="50" height="50" relative="1" as="geometry">
            <mxPoint x="1510" y="230" as="sourcePoint" />
            <mxPoint x="1570" y="430" as="targetPoint" />
          </mxGeometry>
        </mxCell>
        <mxCell id="RqwDbQr5tK9U3BTIjn7D-238" value="" style="endArrow=none;html=1;rounded=0;entryX=0.493;entryY=0.05;entryDx=0;entryDy=0;entryPerimeter=0;" edge="1" parent="1" source="RqwDbQr5tK9U3BTIjn7D-201" target="RqwDbQr5tK9U3BTIjn7D-236">
          <mxGeometry width="50" height="50" relative="1" as="geometry">
            <mxPoint x="1330" y="240" as="sourcePoint" />
            <mxPoint x="1300" y="150" as="targetPoint" />
          </mxGeometry>
        </mxCell>
        <mxCell id="RqwDbQr5tK9U3BTIjn7D-239" value="Giáo viên" style="whiteSpace=wrap;html=1;" vertex="1" parent="1">
          <mxGeometry x="610" y="565" width="120" height="60" as="geometry" />
        </mxCell>
        <mxCell id="RqwDbQr5tK9U3BTIjn7D-247" value="Có&amp;nbsp;" style="html=1;whiteSpace=wrap;aspect=fixed;shape=isoRectangle;" vertex="1" parent="1">
          <mxGeometry x="510" y="400" width="150" height="90" as="geometry" />
        </mxCell>
        <mxCell id="RqwDbQr5tK9U3BTIjn7D-251" value="" style="endArrow=none;html=1;rounded=0;entryX=0.472;entryY=0.996;entryDx=0;entryDy=0;entryPerimeter=0;exitX=0.507;exitY=0.061;exitDx=0;exitDy=0;exitPerimeter=0;" edge="1" parent="1" source="RqwDbQr5tK9U3BTIjn7D-247" target="RqwDbQr5tK9U3BTIjn7D-178">
          <mxGeometry width="50" height="50" relative="1" as="geometry">
            <mxPoint x="640" y="400" as="sourcePoint" />
            <mxPoint x="690" y="300" as="targetPoint" />
          </mxGeometry>
        </mxCell>
        <mxCell id="RqwDbQr5tK9U3BTIjn7D-252" value="" style="endArrow=none;html=1;rounded=0;exitX=0;exitY=0;exitDx=0;exitDy=0;entryX=0.498;entryY=0.957;entryDx=0;entryDy=0;entryPerimeter=0;" edge="1" parent="1" source="RqwDbQr5tK9U3BTIjn7D-239" target="RqwDbQr5tK9U3BTIjn7D-247">
          <mxGeometry width="50" height="50" relative="1" as="geometry">
            <mxPoint x="570" y="575" as="sourcePoint" />
            <mxPoint x="620" y="525" as="targetPoint" />
          </mxGeometry>
        </mxCell>
        <mxCell id="RqwDbQr5tK9U3BTIjn7D-253" value="" style="endArrow=none;html=1;rounded=0;entryX=0.5;entryY=1;entryDx=0;entryDy=0;exitX=0.489;exitY=0.048;exitDx=0;exitDy=0;exitPerimeter=0;" edge="1" parent="1" source="RqwDbQr5tK9U3BTIjn7D-254" target="RqwDbQr5tK9U3BTIjn7D-178">
          <mxGeometry width="50" height="50" relative="1" as="geometry">
            <mxPoint x="730" y="410" as="sourcePoint" />
            <mxPoint x="720" y="360" as="targetPoint" />
            <Array as="points" />
          </mxGeometry>
        </mxCell>
        <mxCell id="RqwDbQr5tK9U3BTIjn7D-254" value="Chủ nhiệm" style="html=1;whiteSpace=wrap;aspect=fixed;shape=isoRectangle;" vertex="1" parent="1">
          <mxGeometry x="680" y="400" width="150" height="90" as="geometry" />
        </mxCell>
        <mxCell id="RqwDbQr5tK9U3BTIjn7D-255" value="" style="endArrow=none;html=1;rounded=0;exitX=0.972;exitY=0.039;exitDx=0;exitDy=0;exitPerimeter=0;entryX=0.506;entryY=0.944;entryDx=0;entryDy=0;entryPerimeter=0;" edge="1" parent="1" source="RqwDbQr5tK9U3BTIjn7D-239" target="RqwDbQr5tK9U3BTIjn7D-254">
          <mxGeometry width="50" height="50" relative="1" as="geometry">
            <mxPoint x="710" y="575" as="sourcePoint" />
            <mxPoint x="760" y="525" as="targetPoint" />
          </mxGeometry>
        </mxCell>
        <mxCell id="RqwDbQr5tK9U3BTIjn7D-257" value="" style="endArrow=none;html=1;rounded=0;exitX=1;exitY=0.5;exitDx=0;exitDy=0;entryX=0.032;entryY=0.5;entryDx=0;entryDy=0;entryPerimeter=0;" edge="1" parent="1" source="RqwDbQr5tK9U3BTIjn7D-239" target="RqwDbQr5tK9U3BTIjn7D-258">
          <mxGeometry width="50" height="50" relative="1" as="geometry">
            <mxPoint x="710" y="640" as="sourcePoint" />
            <mxPoint x="1050" y="510" as="targetPoint" />
          </mxGeometry>
        </mxCell>
        <mxCell id="RqwDbQr5tK9U3BTIjn7D-258" value="Dạy&amp;nbsp;" style="html=1;whiteSpace=wrap;aspect=fixed;shape=isoRectangle;" vertex="1" parent="1">
          <mxGeometry x="980" y="550" width="150" height="90" as="geometry" />
        </mxCell>
        <mxCell id="RqwDbQr5tK9U3BTIjn7D-259" value="" style="endArrow=none;html=1;rounded=0;exitX=0.983;exitY=0.476;exitDx=0;exitDy=0;exitPerimeter=0;" edge="1" parent="1" source="RqwDbQr5tK9U3BTIjn7D-258" target="RqwDbQr5tK9U3BTIjn7D-227">
          <mxGeometry width="50" height="50" relative="1" as="geometry">
            <mxPoint x="1275" y="470" as="sourcePoint" />
            <mxPoint x="1530" y="570" as="targetPoint" />
          </mxGeometry>
        </mxCell>
        <mxCell id="RqwDbQr5tK9U3BTIjn7D-260" value="Sinh viên" style="whiteSpace=wrap;html=1;" vertex="1" parent="1">
          <mxGeometry x="1290" y="1120" width="120" height="60" as="geometry" />
        </mxCell>
        <mxCell id="RqwDbQr5tK9U3BTIjn7D-261" value="Họ tên" style="ellipse;whiteSpace=wrap;html=1;" vertex="1" parent="1">
          <mxGeometry x="1260" y="1290" width="120" height="80" as="geometry" />
        </mxCell>
        <mxCell id="RqwDbQr5tK9U3BTIjn7D-262" value="ngày sinh" style="ellipse;whiteSpace=wrap;html=1;" vertex="1" parent="1">
          <mxGeometry x="1380" y="1280" width="120" height="80" as="geometry" />
        </mxCell>
        <mxCell id="RqwDbQr5tK9U3BTIjn7D-263" value="&lt;u&gt;Mã sinh viên&amp;nbsp;&lt;/u&gt;" style="ellipse;whiteSpace=wrap;html=1;" vertex="1" parent="1">
          <mxGeometry x="1050" y="1300" width="120" height="80" as="geometry" />
        </mxCell>
        <mxCell id="RqwDbQr5tK9U3BTIjn7D-265" value="" style="endArrow=none;html=1;rounded=0;entryX=0.657;entryY=0.043;entryDx=0;entryDy=0;exitX=0.087;exitY=0.981;exitDx=0;exitDy=0;entryPerimeter=0;exitPerimeter=0;" edge="1" parent="1" source="RqwDbQr5tK9U3BTIjn7D-260" target="RqwDbQr5tK9U3BTIjn7D-263">
          <mxGeometry width="50" height="50" relative="1" as="geometry">
            <mxPoint x="770" y="900" as="sourcePoint" />
            <mxPoint x="820" y="850" as="targetPoint" />
          </mxGeometry>
        </mxCell>
        <mxCell id="RqwDbQr5tK9U3BTIjn7D-266" value="" style="endArrow=none;html=1;rounded=0;entryX=0.5;entryY=0;entryDx=0;entryDy=0;exitX=0.5;exitY=1;exitDx=0;exitDy=0;" edge="1" parent="1" source="RqwDbQr5tK9U3BTIjn7D-260" target="RqwDbQr5tK9U3BTIjn7D-261">
          <mxGeometry width="50" height="50" relative="1" as="geometry">
            <mxPoint x="1106.04" y="821" as="sourcePoint" />
            <mxPoint x="1093.96" y="1100.2" as="targetPoint" />
          </mxGeometry>
        </mxCell>
        <mxCell id="RqwDbQr5tK9U3BTIjn7D-267" value="" style="endArrow=none;html=1;rounded=0;entryX=0.006;entryY=0.398;entryDx=0;entryDy=0;entryPerimeter=0;exitX=1;exitY=1;exitDx=0;exitDy=0;" edge="1" parent="1" source="RqwDbQr5tK9U3BTIjn7D-260" target="RqwDbQr5tK9U3BTIjn7D-262">
          <mxGeometry width="50" height="50" relative="1" as="geometry">
            <mxPoint x="900" y="955" as="sourcePoint" />
            <mxPoint x="950" y="905" as="targetPoint" />
          </mxGeometry>
        </mxCell>
        <mxCell id="RqwDbQr5tK9U3BTIjn7D-269" value="Học" style="html=1;whiteSpace=wrap;aspect=fixed;shape=isoRectangle;" vertex="1" parent="1">
          <mxGeometry x="1275" y="850" width="150" height="90" as="geometry" />
        </mxCell>
        <mxCell id="RqwDbQr5tK9U3BTIjn7D-270" value="" style="endArrow=none;html=1;rounded=0;exitX=0.5;exitY=0;exitDx=0;exitDy=0;entryX=0.466;entryY=0.969;entryDx=0;entryDy=0;entryPerimeter=0;" edge="1" parent="1" source="RqwDbQr5tK9U3BTIjn7D-260" target="RqwDbQr5tK9U3BTIjn7D-269">
          <mxGeometry width="50" height="50" relative="1" as="geometry">
            <mxPoint x="1110" y="960" as="sourcePoint" />
            <mxPoint x="1350" y="933" as="targetPoint" />
          </mxGeometry>
        </mxCell>
        <mxCell id="RqwDbQr5tK9U3BTIjn7D-275" value="" style="endArrow=none;html=1;rounded=0;exitX=0.542;exitY=0.038;exitDx=0;exitDy=0;exitPerimeter=0;entryX=0.5;entryY=1;entryDx=0;entryDy=0;" edge="1" parent="1" source="RqwDbQr5tK9U3BTIjn7D-269" target="RqwDbQr5tK9U3BTIjn7D-227">
          <mxGeometry width="50" height="50" relative="1" as="geometry">
            <mxPoint x="1290" y="780" as="sourcePoint" />
            <mxPoint x="1352.1" y="743.52" as="targetPoint" />
          </mxGeometry>
        </mxCell>
        <mxCell id="RqwDbQr5tK9U3BTIjn7D-277" value="Lớp&amp;nbsp;" style="whiteSpace=wrap;html=1;" vertex="1" parent="1">
          <mxGeometry x="600" y="1150" width="120" height="60" as="geometry" />
        </mxCell>
        <mxCell id="RqwDbQr5tK9U3BTIjn7D-278" value="Có&amp;nbsp;" style="html=1;whiteSpace=wrap;aspect=fixed;shape=isoRectangle;" vertex="1" parent="1">
          <mxGeometry x="275" y="550" width="150" height="90" as="geometry" />
        </mxCell>
        <mxCell id="RqwDbQr5tK9U3BTIjn7D-279" value="" style="endArrow=none;html=1;rounded=0;exitX=0;exitY=0.25;exitDx=0;exitDy=0;entryX=0.498;entryY=0.957;entryDx=0;entryDy=0;entryPerimeter=0;" edge="1" parent="1" source="RqwDbQr5tK9U3BTIjn7D-277" target="RqwDbQr5tK9U3BTIjn7D-278">
          <mxGeometry width="50" height="50" relative="1" as="geometry">
            <mxPoint x="380" y="710" as="sourcePoint" />
            <mxPoint x="310" y="665" as="targetPoint" />
          </mxGeometry>
        </mxCell>
        <mxCell id="RqwDbQr5tK9U3BTIjn7D-280" value="" style="endArrow=none;html=1;rounded=0;exitX=0.972;exitY=0.039;exitDx=0;exitDy=0;exitPerimeter=0;entryX=0.033;entryY=0.533;entryDx=0;entryDy=0;entryPerimeter=0;" edge="1" parent="1" source="RqwDbQr5tK9U3BTIjn7D-277" target="RqwDbQr5tK9U3BTIjn7D-281">
          <mxGeometry width="50" height="50" relative="1" as="geometry">
            <mxPoint x="590" y="875" as="sourcePoint" />
            <mxPoint x="780" y="870" as="targetPoint" />
          </mxGeometry>
        </mxCell>
        <mxCell id="RqwDbQr5tK9U3BTIjn7D-281" value="Có" style="html=1;whiteSpace=wrap;aspect=fixed;shape=isoRectangle;" vertex="1" parent="1">
          <mxGeometry x="970" y="1105" width="150" height="90" as="geometry" />
        </mxCell>
        <mxCell id="RqwDbQr5tK9U3BTIjn7D-282" value="" style="endArrow=none;html=1;rounded=0;exitX=0.533;exitY=0;exitDx=0;exitDy=0;exitPerimeter=0;entryX=0.067;entryY=0.967;entryDx=0;entryDy=0;entryPerimeter=0;" edge="1" parent="1" source="RqwDbQr5tK9U3BTIjn7D-278" target="RqwDbQr5tK9U3BTIjn7D-178">
          <mxGeometry width="50" height="50" relative="1" as="geometry">
            <mxPoint x="740" y="400" as="sourcePoint" />
            <mxPoint x="410" y="450" as="targetPoint" />
          </mxGeometry>
        </mxCell>
        <mxCell id="RqwDbQr5tK9U3BTIjn7D-283" value="" style="endArrow=none;html=1;rounded=0;exitX=0.973;exitY=0.433;exitDx=0;exitDy=0;exitPerimeter=0;" edge="1" parent="1" source="RqwDbQr5tK9U3BTIjn7D-281" target="RqwDbQr5tK9U3BTIjn7D-260">
          <mxGeometry width="50" height="50" relative="1" as="geometry">
            <mxPoint x="740" y="750" as="sourcePoint" />
            <mxPoint x="790" y="700" as="targetPoint" />
          </mxGeometry>
        </mxCell>
        <mxCell id="RqwDbQr5tK9U3BTIjn7D-284" value="" style="endArrow=none;html=1;rounded=0;exitX=0.436;exitY=0.078;exitDx=0;exitDy=0;entryX=0.475;entryY=0.973;entryDx=0;entryDy=0;entryPerimeter=0;exitPerimeter=0;" edge="1" parent="1" source="RqwDbQr5tK9U3BTIjn7D-277" target="RqwDbQr5tK9U3BTIjn7D-285">
          <mxGeometry width="50" height="50" relative="1" as="geometry">
            <mxPoint x="680" y="810" as="sourcePoint" />
            <mxPoint x="690" y="790" as="targetPoint" />
          </mxGeometry>
        </mxCell>
        <mxCell id="RqwDbQr5tK9U3BTIjn7D-285" value="Chủ nhiệm" style="html=1;whiteSpace=wrap;aspect=fixed;shape=isoRectangle;" vertex="1" parent="1">
          <mxGeometry x="585" y="770" width="150" height="90" as="geometry" />
        </mxCell>
        <mxCell id="RqwDbQr5tK9U3BTIjn7D-286" value="" style="endArrow=none;html=1;rounded=0;exitX=0.494;exitY=0.03;exitDx=0;exitDy=0;exitPerimeter=0;entryX=0.468;entryY=0.967;entryDx=0;entryDy=0;entryPerimeter=0;" edge="1" parent="1" source="RqwDbQr5tK9U3BTIjn7D-285" target="RqwDbQr5tK9U3BTIjn7D-239">
          <mxGeometry width="50" height="50" relative="1" as="geometry">
            <mxPoint x="740" y="700" as="sourcePoint" />
            <mxPoint x="790" y="650" as="targetPoint" />
          </mxGeometry>
        </mxCell>
        <mxCell id="RqwDbQr5tK9U3BTIjn7D-289" value="Điểm bằng chữ" style="ellipse;whiteSpace=wrap;html=1;" vertex="1" parent="1">
          <mxGeometry x="1520" y="880" width="120" height="80" as="geometry" />
        </mxCell>
        <mxCell id="RqwDbQr5tK9U3BTIjn7D-290" value="Điểm bằng số" style="ellipse;whiteSpace=wrap;html=1;" vertex="1" parent="1">
          <mxGeometry x="1530" y="1000" width="120" height="80" as="geometry" />
        </mxCell>
        <mxCell id="RqwDbQr5tK9U3BTIjn7D-293" value="" style="endArrow=none;html=1;rounded=0;entryX=0.381;entryY=0.018;entryDx=0;entryDy=0;entryPerimeter=0;exitX=1;exitY=0.444;exitDx=0;exitDy=0;exitPerimeter=0;" edge="1" parent="1" source="RqwDbQr5tK9U3BTIjn7D-269" target="RqwDbQr5tK9U3BTIjn7D-289">
          <mxGeometry width="50" height="50" relative="1" as="geometry">
            <mxPoint x="1140" y="1270" as="sourcePoint" />
            <mxPoint x="1203.33" y="1220" as="targetPoint" />
          </mxGeometry>
        </mxCell>
        <mxCell id="RqwDbQr5tK9U3BTIjn7D-294" value="" style="endArrow=none;html=1;rounded=0;entryX=0.006;entryY=0.398;entryDx=0;entryDy=0;entryPerimeter=0;exitX=0.556;exitY=0.917;exitDx=0;exitDy=0;exitPerimeter=0;" edge="1" parent="1" source="RqwDbQr5tK9U3BTIjn7D-269" target="RqwDbQr5tK9U3BTIjn7D-290">
          <mxGeometry width="50" height="50" relative="1" as="geometry">
            <mxPoint x="1140" y="1330" as="sourcePoint" />
            <mxPoint x="1020" y="1285" as="targetPoint" />
          </mxGeometry>
        </mxCell>
        <mxCell id="RqwDbQr5tK9U3BTIjn7D-302" value="Tên Trường" style="ellipse;whiteSpace=wrap;html=1;" vertex="1" parent="1">
          <mxGeometry x="910" y="60" width="120" height="80" as="geometry" />
        </mxCell>
        <mxCell id="RqwDbQr5tK9U3BTIjn7D-305" value="" style="endArrow=none;html=1;rounded=0;exitX=1;exitY=0.25;exitDx=0;exitDy=0;entryX=0.021;entryY=0.656;entryDx=0;entryDy=0;entryPerimeter=0;" edge="1" parent="1" source="RqwDbQr5tK9U3BTIjn7D-178" target="RqwDbQr5tK9U3BTIjn7D-302">
          <mxGeometry width="50" height="50" relative="1" as="geometry">
            <mxPoint x="789.5" y="330" as="sourcePoint" />
            <mxPoint x="1030.5" y="332" as="targetPoint" />
          </mxGeometry>
        </mxCell>
        <mxCell id="RqwDbQr5tK9U3BTIjn7D-306" value="Tên khoa" style="ellipse;whiteSpace=wrap;html=1;" vertex="1" parent="1">
          <mxGeometry x="1290" y="10" width="120" height="80" as="geometry" />
        </mxCell>
        <mxCell id="RqwDbQr5tK9U3BTIjn7D-308" value="" style="endArrow=none;html=1;rounded=0;entryX=0.367;entryY=0.949;entryDx=0;entryDy=0;entryPerimeter=0;" edge="1" parent="1" target="RqwDbQr5tK9U3BTIjn7D-306" source="RqwDbQr5tK9U3BTIjn7D-201">
          <mxGeometry width="50" height="50" relative="1" as="geometry">
            <mxPoint x="982" y="490" as="sourcePoint" />
            <mxPoint x="872" y="485" as="targetPoint" />
          </mxGeometry>
        </mxCell>
        <mxCell id="RqwDbQr5tK9U3BTIjn7D-311" value="Tên môn học" style="ellipse;whiteSpace=wrap;html=1;" vertex="1" parent="1">
          <mxGeometry x="1510" y="650" width="120" height="80" as="geometry" />
        </mxCell>
        <mxCell id="RqwDbQr5tK9U3BTIjn7D-313" value="" style="endArrow=none;html=1;rounded=0;entryX=0.006;entryY=0.398;entryDx=0;entryDy=0;entryPerimeter=0;exitX=0.984;exitY=0.894;exitDx=0;exitDy=0;exitPerimeter=0;" edge="1" parent="1" target="RqwDbQr5tK9U3BTIjn7D-311" source="RqwDbQr5tK9U3BTIjn7D-227">
          <mxGeometry width="50" height="50" relative="1" as="geometry">
            <mxPoint x="1492" y="860" as="sourcePoint" />
            <mxPoint x="1382" y="855" as="targetPoint" />
          </mxGeometry>
        </mxCell>
        <mxCell id="RqwDbQr5tK9U3BTIjn7D-315" value="Tên giáo viên dạy" style="ellipse;whiteSpace=wrap;html=1;" vertex="1" parent="1">
          <mxGeometry x="1460" y="730" width="120" height="80" as="geometry" />
        </mxCell>
        <mxCell id="RqwDbQr5tK9U3BTIjn7D-316" value="" style="endArrow=none;html=1;rounded=0;entryX=0.006;entryY=0.398;entryDx=0;entryDy=0;entryPerimeter=0;exitX=0.75;exitY=1;exitDx=0;exitDy=0;" edge="1" parent="1" target="RqwDbQr5tK9U3BTIjn7D-315" source="RqwDbQr5tK9U3BTIjn7D-227">
          <mxGeometry width="50" height="50" relative="1" as="geometry">
            <mxPoint x="760" y="620" as="sourcePoint" />
            <mxPoint x="650" y="615" as="targetPoint" />
          </mxGeometry>
        </mxCell>
        <mxCell id="RqwDbQr5tK9U3BTIjn7D-319" value="(1,1)" style="text;html=1;align=center;verticalAlign=middle;resizable=0;points=[];autosize=1;strokeColor=none;fillColor=none;" vertex="1" parent="1">
          <mxGeometry x="195" y="148" width="50" height="30" as="geometry" />
        </mxCell>
        <mxCell id="RqwDbQr5tK9U3BTIjn7D-320" value="(n,n)" style="text;html=1;align=center;verticalAlign=middle;resizable=0;points=[];autosize=1;strokeColor=none;fillColor=none;" vertex="1" parent="1">
          <mxGeometry x="545" y="148" width="50" height="30" as="geometry" />
        </mxCell>
        <mxCell id="RqwDbQr5tK9U3BTIjn7D-321" value="(1,n)" style="text;html=1;align=center;verticalAlign=middle;resizable=0;points=[];autosize=1;strokeColor=none;fillColor=none;" vertex="1" parent="1">
          <mxGeometry x="1195" y="138" width="50" height="30" as="geometry" />
        </mxCell>
        <mxCell id="RqwDbQr5tK9U3BTIjn7D-322" value="(1,1)" style="text;html=1;align=center;verticalAlign=middle;resizable=0;points=[];autosize=1;strokeColor=none;fillColor=none;" vertex="1" parent="1">
          <mxGeometry x="785" y="148" width="50" height="30" as="geometry" />
        </mxCell>
        <mxCell id="RqwDbQr5tK9U3BTIjn7D-323" value="(1,1)" style="text;html=1;align=center;verticalAlign=middle;resizable=0;points=[];autosize=1;strokeColor=none;fillColor=none;" vertex="1" parent="1">
          <mxGeometry x="1355" y="228" width="50" height="30" as="geometry" />
        </mxCell>
        <mxCell id="RqwDbQr5tK9U3BTIjn7D-324" value="(1,n)" style="text;html=1;align=center;verticalAlign=middle;resizable=0;points=[];autosize=1;strokeColor=none;fillColor=none;" vertex="1" parent="1">
          <mxGeometry x="1365" y="518" width="50" height="30" as="geometry" />
        </mxCell>
        <mxCell id="RqwDbQr5tK9U3BTIjn7D-325" value="(1,n)" style="text;html=1;align=center;verticalAlign=middle;resizable=0;points=[];autosize=1;strokeColor=none;fillColor=none;" vertex="1" parent="1">
          <mxGeometry x="595" y="518" width="50" height="30" as="geometry" />
        </mxCell>
        <mxCell id="RqwDbQr5tK9U3BTIjn7D-326" value="(1,1)" style="text;html=1;align=center;verticalAlign=middle;resizable=0;points=[];autosize=1;strokeColor=none;fillColor=none;" vertex="1" parent="1">
          <mxGeometry x="615" y="238" width="50" height="30" as="geometry" />
        </mxCell>
        <mxCell id="RqwDbQr5tK9U3BTIjn7D-327" value="(1,1)" style="text;html=1;align=center;verticalAlign=middle;resizable=0;points=[];autosize=1;strokeColor=none;fillColor=none;" vertex="1" parent="1">
          <mxGeometry x="735" y="538" width="50" height="30" as="geometry" />
        </mxCell>
        <mxCell id="RqwDbQr5tK9U3BTIjn7D-328" value="(1,1)" style="text;html=1;align=center;verticalAlign=middle;resizable=0;points=[];autosize=1;strokeColor=none;fillColor=none;" vertex="1" parent="1">
          <mxGeometry x="695" y="208" width="50" height="30" as="geometry" />
        </mxCell>
        <mxCell id="RqwDbQr5tK9U3BTIjn7D-329" value="(0,4)" style="text;html=1;align=center;verticalAlign=middle;resizable=0;points=[];autosize=1;strokeColor=none;fillColor=none;" vertex="1" parent="1">
          <mxGeometry x="1215" y="568" width="50" height="30" as="geometry" />
        </mxCell>
        <mxCell id="RqwDbQr5tK9U3BTIjn7D-330" value="(n,n)" style="text;html=1;align=center;verticalAlign=middle;resizable=0;points=[];autosize=1;strokeColor=none;fillColor=none;" vertex="1" parent="1">
          <mxGeometry x="765" y="568" width="50" height="30" as="geometry" />
        </mxCell>
        <mxCell id="RqwDbQr5tK9U3BTIjn7D-331" value="(n,n)" style="text;html=1;align=center;verticalAlign=middle;resizable=0;points=[];autosize=1;strokeColor=none;fillColor=none;" vertex="1" parent="1">
          <mxGeometry x="1285" y="638" width="50" height="30" as="geometry" />
        </mxCell>
        <mxCell id="RqwDbQr5tK9U3BTIjn7D-332" value="(n,n)" style="text;html=1;align=center;verticalAlign=middle;resizable=0;points=[];autosize=1;strokeColor=none;fillColor=none;" vertex="1" parent="1">
          <mxGeometry x="1290" y="1080" width="50" height="30" as="geometry" />
        </mxCell>
        <mxCell id="RqwDbQr5tK9U3BTIjn7D-333" value="(n,n)" style="text;html=1;align=center;verticalAlign=middle;resizable=0;points=[];autosize=1;strokeColor=none;fillColor=none;" vertex="1" parent="1">
          <mxGeometry x="485" y="1108" width="50" height="30" as="geometry" />
        </mxCell>
        <mxCell id="RqwDbQr5tK9U3BTIjn7D-334" value="(1,1)" style="text;html=1;align=center;verticalAlign=middle;resizable=0;points=[];autosize=1;strokeColor=none;fillColor=none;" vertex="1" parent="1">
          <mxGeometry x="535" y="208" width="50" height="30" as="geometry" />
        </mxCell>
        <mxCell id="RqwDbQr5tK9U3BTIjn7D-335" value="(1,1)" style="text;html=1;align=center;verticalAlign=middle;resizable=0;points=[];autosize=1;strokeColor=none;fillColor=none;" vertex="1" parent="1">
          <mxGeometry x="665" y="668" width="50" height="30" as="geometry" />
        </mxCell>
        <mxCell id="RqwDbQr5tK9U3BTIjn7D-336" value="(1,1)" style="text;html=1;align=center;verticalAlign=middle;resizable=0;points=[];autosize=1;strokeColor=none;fillColor=none;" vertex="1" parent="1">
          <mxGeometry x="655" y="1108" width="50" height="30" as="geometry" />
        </mxCell>
        <mxCell id="RqwDbQr5tK9U3BTIjn7D-337" value="(n,n)" style="text;html=1;align=center;verticalAlign=middle;resizable=0;points=[];autosize=1;strokeColor=none;fillColor=none;" vertex="1" parent="1">
          <mxGeometry x="745" y="1158" width="50" height="30" as="geometry" />
        </mxCell>
        <mxCell id="RqwDbQr5tK9U3BTIjn7D-338" value="(n,n)" style="text;html=1;align=center;verticalAlign=middle;resizable=0;points=[];autosize=1;strokeColor=none;fillColor=none;" vertex="1" parent="1">
          <mxGeometry x="1185" y="1168" width="50" height="30" as="geometry" />
        </mxCell>
      </root>
    </mxGraphModel>
  </diagram>
</mxfile>
